# xmcd
#
# Track frame offsets: 
#        150
#        12597
#        28112
#        42022
#        53922
#        70032
#        84562
#        97290
#        111450
#        127387
#        145480
#        158085
#        171682
#
# Disc length: 2498 seconds
#
# Revision: 0
# Processed by: cddbd v1.5.1PL2 Copyright (c) Steve Scherf et al.
# Submitted via: ExactAudioCopy v0.95a5
#
DISCID=c609c00d
DTITLE=Various Artist - The Daughters of American Bluegrass
DYEAR=2004
DGENRE=Bluegrass
TTITLE0=Mama Can You Hear That Train A Coming
TTITLE1=Poor Little Sadie
TTITLE2=Bluer Than Blue
TTITLE3=Last Hanging of Wise County
TTITLE4=Jesus Hold My Hand
TTITLE5=I've Already Turned That Page
TTITLE6=Lone Tree Standing
TTITLE7=The Sweetest Gift ( A Mother's Smile)
TTITLE8=Jordan Run
TTITLE9=Hold Wat'cha Got
TTITLE10=Seventeen Years
TTITLE11=I Hope You Have Learned
TTITLE12=Mule Skinner Blues
EXTD=
EXTT0=
EXTT1=
EXTT2=
EXTT3=
EXTT4=
EXTT5=
EXTT6=
EXTT7=
EXTT8=
EXTT9=
EXTT10=
EXTT11=
EXTT12=
PLAYORDER=
